HIERARCHY
ROOT hip
{
	OFFSET 0.000000 0.000000 0.000000
	CHANNELS 6 Xposition Yposition Zposition Xrotation Zrotation Yrotation 
	JOINT abdomen
	{
		OFFSET 0.000000 3.422050 0.000000
		CHANNELS 3 Xrotation Zrotation Yrotation 
		JOINT chest
		{
			OFFSET 0.000000 8.486693 -0.684411
			CHANNELS 3 Xrotation Zrotation Yrotation 
			JOINT neck
			{
				OFFSET 0.000000 10.266162 -0.273764
				CHANNELS 3 Xrotation Zrotation Yrotation 
				JOINT head
				{
					OFFSET 0.000000 3.148285 0.000000
					CHANNELS 3 Xrotation Zrotation Yrotation 
					End Site
					{
						OFFSET 0.000000 3.148289 0.000000
					}
				}
			}
			JOINT lCollar
			{
				OFFSET 3.422053 6.707223 -0.821293
				CHANNELS 3 Yrotation Zrotation Xrotation 
				JOINT lShldr
				{
					OFFSET 3.285171 0.000000 0.000000
					CHANNELS 3 Zrotation Yrotation Xrotation 
					JOINT lForeArm
					{
						OFFSET 10.129278 0.000000 0.000000
						CHANNELS 3 Yrotation Zrotation Xrotation 
						JOINT lHand
						{
							OFFSET 8.486692 0.000000 0.000000
							CHANNELS 3 Zrotation Yrotation Xrotation 
							End Site
							{
								OFFSET 4.106464 0.000000 0.000000
							}
						}
					}
				}
			}
			JOINT rCollar
			{
				OFFSET -3.558935 6.707223 -0.821293
				CHANNELS 3 Yrotation Zrotation Xrotation 
				JOINT rShldr
				{
					OFFSET -3.148289 0.000000 0.000000
					CHANNELS 3 Zrotation Yrotation Xrotation 
					JOINT rForeArm
					{
						OFFSET -10.266159 0.000000 0.000000
						CHANNELS 3 Yrotation Zrotation Xrotation 
						JOINT rHand
						{
							OFFSET -8.349810 0.000000 0.000000
							CHANNELS 3 Zrotation Yrotation Xrotation 
							End Site
							{
								OFFSET -4.106464 0.000000 0.000000
							}
						}
					}
				}
			}
		}
	}
	JOINT lThigh
	{
		OFFSET 5.338403 -1.642589 1.368821
		CHANNELS 3 Xrotation Zrotation Yrotation 
		JOINT lShin
		{
			OFFSET -2.053232 -20.121670 0.000000
			CHANNELS 3 Xrotation Zrotation Yrotation 
			JOINT lFoot
			{
				OFFSET 0.000000 -19.300380 -1.231939
				CHANNELS 3 Xrotation Yrotation Zrotation 
				End Site
				{
					OFFSET 0.000000 -2.463878 4.653993
				}
			}
		}
	}
	JOINT rThigh
	{
		OFFSET -5.338403 -1.642589 1.368821
		CHANNELS 3 Xrotation Zrotation Yrotation 
		JOINT rShin
		{
			OFFSET 2.053232 -20.121670 0.000000
			CHANNELS 3 Xrotation Zrotation Yrotation 
			JOINT rFoot
			{
				OFFSET 0.000000 -19.300380 -1.231939
				CHANNELS 3 Xrotation Yrotation Zrotation 
				End Site
				{
					OFFSET 0.000000 -2.463878 4.653993
				}
			}
		}
	}
}
MOTION
Frames: 10
Frame Time: 0.100000
0.000000 43.528500 0.000000 0.000000 0.000000 0.000000 0.000000 0.000000 0.000000 0.000000 0.000000 0.000000 0.000000 0.000000 0.000000 0.000000 0.000000 0.000000 0.000000 0.000000 0.000000 0.000000 0.000000 0.000000 0.000000 0.000000 0.000000 0.000000 0.000000 0.000000 0.000000 0.000000 0.000000 0.000000 0.000000 0.000000 0.000000 0.000000 0.000000 0.000000 0.000000 0.000000 0.000000 0.000000 0.000000 0.000000 0.000000 0.000000 0.000000 0.000000 0.000000 0.000000 0.000000 0.000000 0.000000 0.000000 0.000000 0.000000 0.000000 0.000000 
9.999443 9.997749 0.000000 -74.002304 0.000000 0.000000 78.998169 -0.000697 0.998762 17.998348 0.000000 0.000000 -14.000520 0.000000 0.000000 11.997753 0.000000 0.000000 0.000000 0.000000 0.000000 13.023076 -81.003746 -60.025208 -36.001720 -0.003011 19.999016 -23.002533 0.000000 0.000000 0.000000 0.000000 -10.002190 6.985828 74.997421 11.985744 31.998558 -5.001005 -20.000185 12.996756 19.998549 -7.001485 -62.005939 59.999668 21.997202 102.996559 -0.000001 0.000001 19.999689 -0.001122 4.999894 -62.005825 -60.005520 -21.999332 105.995415 -0.000001 0.000001 26.996685 0.000000 0.000000 
9.999443 9.997749 0.000000 -74.002304 0.000000 0.000000 78.998184 -0.000697 0.998762 17.998350 0.000000 0.000000 -14.000520 0.000000 0.000000 11.997754 0.000000 0.000000 0.000000 0.000000 0.000000 13.023091 -81.003807 -60.025253 -36.001720 -0.003011 19.999018 -23.002533 0.000000 0.000000 0.000000 0.000000 -10.002190 6.985828 74.997429 11.985745 31.998558 -5.001005 -20.000185 12.996756 19.998549 -7.001485 -62.005939 59.999676 21.997208 102.996559 -0.000001 0.000001 19.999689 -0.001122 4.999894 -62.005825 -60.005520 -21.999332 105.995415 -0.000001 0.000001 26.996687 0.000000 0.000000 
9.999443 9.997749 0.000000 -74.002304 0.000000 0.000000 78.998169 -0.000697 0.998762 17.998348 0.000000 0.000000 -14.000519 0.000000 0.000000 11.997752 0.000000 0.000000 0.000000 0.000000 0.000000 13.023074 -81.003716 -60.025177 -36.001717 -0.003010 19.999016 -23.002533 0.000000 0.000000 0.000000 0.000000 -10.002190 6.985828 74.997421 11.985744 31.998552 -5.001004 -20.000183 12.996756 19.998547 -7.001484 -62.005939 59.999668 21.997202 102.996559 -0.000001 0.000001 19.999689 -0.001122 4.999894 -62.005825 -60.005520 -21.999332 105.995415 -0.000001 0.000001 26.996681 0.000000 0.000000 
9.999443 9.997749 0.000000 -74.002304 0.000000 0.000000 78.998169 -0.000697 0.998762 17.998348 0.000000 0.000000 -14.000520 0.000000 0.000000 11.997753 0.000000 0.000000 0.000000 0.000000 0.000000 13.023076 -81.003746 -60.025208 -36.001720 -0.003011 19.999016 -23.002533 0.000000 0.000000 0.000000 0.000000 -10.002190 6.985828 74.997421 11.985744 31.998558 -5.001005 -20.000185 12.996756 19.998549 -7.001485 -62.005939 59.999668 21.997202 102.996559 -0.000001 0.000001 19.999689 -0.001122 4.999894 -62.005825 -60.005520 -21.999332 105.995415 -0.000001 0.000001 26.996685 0.000000 0.000000 
9.999443 9.997749 0.000000 -74.002304 0.000000 0.000000 78.998169 -0.000697 0.998762 17.998350 0.000000 0.000000 -14.000520 0.000000 0.000000 11.997753 0.000000 0.000000 0.000000 0.000000 0.000000 13.023088 -81.003746 -60.025227 -36.001724 -0.003012 19.999020 -23.002533 0.000000 0.000000 0.000000 0.000000 -10.002190 6.985828 74.997421 11.985744 31.998558 -5.001005 -20.000187 12.996756 19.998549 -7.001485 -62.005939 59.999668 21.997202 102.996559 -0.000001 0.000001 19.999691 -0.001122 4.999894 -62.005825 -60.005520 -21.999332 105.995415 -0.000001 0.000001 26.996687 0.000000 0.000000 
9.999443 9.997749 0.000000 -74.002304 0.000000 0.000000 78.998169 -0.000697 0.998762 17.998346 0.000000 0.000000 -14.000520 0.000000 0.000000 11.997753 0.000000 0.000000 0.000000 0.000000 0.000000 13.023087 -81.003723 -60.025200 -36.001720 -0.003011 19.999016 -23.002531 0.000000 0.000000 0.000000 0.000000 -10.002188 6.985829 74.997421 11.985745 31.998558 -5.001005 -20.000185 12.996756 19.998549 -7.001485 -62.005932 59.999660 21.997198 102.996552 -0.000001 0.000001 19.999685 -0.001122 4.999893 -62.005825 -60.005520 -21.999327 105.995415 -0.000001 0.000001 26.996681 0.000000 0.000000 
9.999443 9.997749 0.000000 -74.002304 0.000000 0.000000 78.998169 -0.000697 0.998762 17.998348 0.000000 0.000000 -14.000519 0.000000 0.000000 11.997751 0.000000 0.000000 0.000000 0.000000 0.000000 13.023076 -81.003746 -60.025208 -36.001720 -0.003011 19.999016 -23.002533 0.000000 0.000000 0.000000 0.000000 -10.002189 6.985828 74.997421 11.985744 31.998558 -5.001005 -20.000185 12.996756 19.998549 -7.001485 -62.005939 59.999668 21.997202 102.996559 -0.000001 0.000001 19.999687 -0.001122 4.999894 -62.005825 -60.005516 -21.999321 105.995415 -0.000001 0.000001 26.996683 0.000000 0.000000 
9.999443 9.997749 0.000000 -74.002304 0.000000 0.000000 78.998169 -0.000697 0.998762 17.998348 0.000000 0.000000 -14.000520 0.000000 0.000000 11.997753 0.000000 0.000000 0.000000 0.000000 0.000000 13.023076 -81.003746 -60.025208 -36.001720 -0.003011 19.999016 -23.002533 0.000000 0.000000 0.000000 0.000000 -10.002190 6.985828 74.997421 11.985744 31.998558 -5.001005 -20.000185 12.996756 19.998549 -7.001485 -62.005939 59.999668 21.997202 102.996559 -0.000001 0.000001 19.999689 -0.001122 4.999894 -62.005825 -60.005520 -21.999332 105.995415 -0.000001 0.000001 26.996685 0.000000 0.000000 
9.999443 9.997749 0.000000 -74.002304 0.000000 0.000000 78.998169 -0.000697 0.998762 17.998348 0.000000 0.000000 -14.000521 0.000000 0.000000 11.997754 0.000000 0.000000 0.000000 0.000000 0.000000 13.023060 -81.003777 -60.025208 -36.001720 -0.003011 19.999018 -23.002533 0.000000 0.000000 0.000000 0.000000 -10.002190 6.985828 74.997429 11.985745 31.998562 -5.001005 -20.000187 12.996756 19.998549 -7.001485 -62.005939 59.999676 21.997208 102.996559 -0.000001 0.000001 19.999689 -0.001122 4.999894 -62.005825 -60.005527 -21.999338 105.995415 -0.000001 0.000001 26.996685 0.000000 0.000000 
